<?xml version="1.0" standalone="no"?>
<!DOCTYPE svg PUBLIC "-//W3C//DTD SVG 20010904//EN"
 "http://www.w3.org/TR/2001/REC-SVG-20010904/DTD/svg10.dtd">
<svg version="1.0" xmlns="http://www.w3.org/2000/svg"
 width="439.000000pt" height="439.000000pt" viewBox="0 0 439.000000 439.000000"
 preserveAspectRatio="xMidYMid meet">
<metadata>
Created by potrace 1.11, written by Peter Selinger 2001-2013
</metadata>
<g transform="translate(0.000000,439.000000) scale(0.100000,-0.100000)"
fill="#000000" stroke="none">
<path d="M835 3180 c-163 -18 -286 -70 -372 -156 -151 -151 -163 -397 -26
-544 90 -98 168 -132 476 -211 181 -46 242 -69 306 -113 54 -39 81 -90 81
-156 0 -63 -17 -106 -60 -148 -70 -68 -160 -93 -333 -93 -172 0 -348 53 -472
142 -25 18 -47 30 -49 28 -2 -2 -22 -41 -45 -86 l-41 -82 48 -34 c88 -64 222
-118 367 -148 81 -17 304 -17 390 0 239 48 383 178 415 375 19 120 -17 244
-95 322 -84 83 -170 120 -460 195 -213 55 -295 89 -348 144 -77 79 -65 212 27
292 61 54 135 76 277 81 150 5 238 -13 376 -78 47 -22 87 -39 89 -37 2 1 19
41 39 87 42 98 44 92 -62 141 -80 37 -186 66 -293 79 -93 11 -131 11 -235 0z"/>
<path d="M1958 2375 l267 -795 121 0 121 0 212 623 c117 342 215 625 219 629
4 4 103 -277 221 -623 l214 -630 120 3 119 3 264 785 c145 432 264 789 264
793 0 4 -48 6 -107 5 l-106 -3 -211 -625 c-117 -344 -215 -634 -220 -645 -6
-15 -65 149 -225 625 l-218 645 -105 3 -105 3 -224 -647 -223 -647 -215 647
-216 646 -117 0 -117 0 267 -795z"/>
</g>
</svg>
